<svg xmlns="http://www.w3.org/2000/svg" viewBox="0 0 120.25 43.18"><defs><style>.cls-1{fill:#00457c;}.cls-2{fill:none;}.cls-3{fill:#fff;}</style></defs><title>iica_azul</title><g id="Capa_2" data-name="Capa 2"><g id="textos_resumen_2015" data-name="textos resumen 2015"><polygon class="cls-1" points="29.28 0 36.64 0 19.43 43.11 11.82 43.11 29.28 0"/><polygon class="cls-1" points="17.46 0 24.82 0 7.61 43.11 0 43.11 17.46 0"/><path class="cls-1" d="M69.54,30V.09h-6L46.23,43l4.55,0,2.66-7.44h9.25v7.56l7,0V35.56h4.42V30Zm-6.63,0-7,0,7-17.33Z"/><path class="cls-1" d="M49.55,13.17S54,4.84,48.79,4c0,0-2.38-.59-4.08,3.24l-11,27.58S31.74,39,35.6,39.3a4.37,4.37,0,0,0,4.32-2.52l2.28-5.4h4l-2.68,6.37a8.3,8.3,0,0,1-8.75,5.4s-6.76-.69-7.08-6.72c0,0-.53-2.08,2.64-9.35L38.84,5.48S42.34-3,51.67,1.4c0,0,5.15,2.44,2.76,9l-1.08,2.77Z"/><path class="cls-1" d="M102.86,21.48a.13.13,0,0,0,.26,0"/><polygon class="cls-1" points="98.78 35.06 98.78 8.1 99.11 8.1 99.11 35.06 98.78 35.06 98.78 35.06"/><path class="cls-1" d="M85.29,21.58A13.65,13.65,0,0,1,98.94,7.93h0a13.65,13.65,0,0,1,13.65,13.65h0A13.65,13.65,0,0,1,98.94,35.23h0A13.65,13.65,0,0,1,85.29,21.58Zm.33,0A13.33,13.33,0,0,0,98.94,34.89h0a13.33,13.33,0,0,0,13.31-13.31h0A13.33,13.33,0,0,0,98.94,8.26h0A13.33,13.33,0,0,0,85.63,21.58Z"/><polygon class="cls-1" points="85.46 21.75 85.46 21.41 112.43 21.41 112.43 21.75 85.46 21.75 85.46 21.75"/><polygon class="cls-1" points="86.8 16.27 86.8 15.94 111.16 15.94 111.16 16.27 86.8 16.27 86.8 16.27"/><polygon class="cls-1" points="86.6 27.16 86.6 26.83 111.29 26.83 111.29 27.16 86.6 27.16 86.6 27.16"/><path class="cls-1" d="M92.17,21.45c0-.15,0-.3,0-.45h0A15.92,15.92,0,0,1,98.72,8h0l.18.28a14.18,14.18,0,0,0-3.2,3.13h0A15.67,15.67,0,0,0,92.5,21h0c0,.14,0,.29,0,.44h0a21.23,21.23,0,0,0,.84,5.08h0a15,15,0,0,0,5.56,8.34h0l-.19.27c-6.45-4.48-6.54-13.67-6.55-13.68Z"/><path class="cls-1" d="M88.36,21.46q0-.23,0-.45h0C88.38,12.08,98.88,8,98.88,7.94h0l.12.31a22.11,22.11,0,0,0-5.17,3.14h0c-2.59,2.12-5.15,5.3-5.15,9.62h0c0,.14,0,.29,0,.44h0a14,14,0,0,0,1.35,5.05h0a16.8,16.8,0,0,0,9,8.34h0l-.13.31C88.56,30.7,88.36,21.47,88.36,21.46Z"/><path class="cls-1" d="M98.51,34.79a15,15,0,0,0,5.56-8.33h0a21,21,0,0,0,.84-5.08h0c0-.15,0-.3,0-.44h0a15.66,15.66,0,0,0-3.21-9.64h0a14,14,0,0,0-3.2-3.13h0l.18-.28a15.92,15.92,0,0,1,6.56,13h0c0,.15,0,.3,0,.44h0s-.1,9.2-6.55,13.68h0l-.19-.28Zm0-26.62h0Z"/><path class="cls-1" d="M98.87,34.86a16.8,16.8,0,0,0,9-8.34h0a13.79,13.79,0,0,0,1.35-5.06h0c0-.15,0-.29,0-.44h0c0-4.32-2.56-7.5-5.15-9.61h0a21.89,21.89,0,0,0-5.17-3.14h0L99,8S109.51,12.1,109.53,21h0c0,.15,0,.3,0,.45h0s-.19,9.25-10.51,13.7h0l-.13-.31Z"/><path class="cls-1" d="M100.58,10s-.46.43.16.55a2.87,2.87,0,0,1,1.46.57s.09.07.23,0,0,.34.2.38l.31,0a.21.21,0,0,1,0,.28s-.16.25.64.5c0,0,.11,0,.13.18,0,0,0,.33.23.32a.6.6,0,0,0,.18-.08.49.49,0,0,1,.45.22s.21.1,0-.18a.64.64,0,0,1,.12-.81s.33-.18.33-.32.06,0-.2-.25c0,0-.09-.17.3,0,0,0,.28.07-.49-.38a1,1,0,0,1-.24-.47s-.28-.35-1.1-.28A19.29,19.29,0,0,0,100.58,10Z"/><path class="cls-1" d="M99,10.93s0,.34.46.28a.86.86,0,0,1,.93.66s-.06.34.28.17c0,0,.15-.09.24.2,0,0,.08.21.45.17,0,0,.2,0-.09-.42,0,0-.13-.11.25-.06,0,0,.31,0-.63-.37a6.07,6.07,0,0,1-.78-.38s-.6-.42-.83-.36A.32.32,0,0,0,99,10.93Z"/><path class="cls-1" d="M99.45,12.18s-.22.2-.13.32,0,.07.16,0,0-.07.09,0,.23,0,.05-.16c0,0-.09-.09-.07-.16S99.47,12,99.45,12.18Z"/><path class="cls-1" d="M99.43,12.05s-.26.41-.56.23c0,0-.19-.06-.25.21,0,0,0,.21-.58,0,0,0-.21,0,.07.24,0,0,.28.14.05.51,0,0-.19.33,0,.47a2.41,2.41,0,0,0,.89.16s.46.05.59.35c0,0,.25.46.46.45,0,0,.13,0-.16-.61,0,0-.07-.1.19-.2,0,0,.2,0-.08-.51,0,0-.18-.37,0-.5,0,0,.08-.12.83.26a.14.14,0,0,1,0,.18s-.09.14.4.31a.56.56,0,0,0,.46-.2s.22,0,.37.28c0,0,.31.58.62.69,0,0,.43.26-.14.27a1.13,1.13,0,0,0-1.38.69s0,.19.67-.2c0,0,.55-.06.43.55,0,0-.14.23-.28-.08,0,0-.22-.25-.55.34a2.56,2.56,0,0,1-.74.58.74.74,0,0,0-.24.57,2.79,2.79,0,0,1-.46.93s-.19.25,0,.8c0,0,.07.2-.17.28,0,0-.14,0-.17-.31,0,0-.25-1-1-.83a1.12,1.12,0,0,0-.34.29s-.21.27-.83.1c0,0-.46,0-.37.69,0,0-.13,1.52.53,1.4a.55.55,0,0,0,.45-.28s.5-.5.55-.17a2.87,2.87,0,0,1-.11.59s-.15.51-.08.58a.49.49,0,0,0,.42-.09.27.27,0,0,1,.38.27,2,2,0,0,0,0,.69.48.48,0,0,0,.26.19s0,0,.12.22c0,0,0,.08.21,0a.69.69,0,0,1,.63.08s.2.1.31-.2c0,0,.19-.39.39-.26,0,0,.06,0,0,.36a.22.22,0,0,0,.25.29s.1-.09,0-.24c0,0-.18-.28.37-.22a.88.88,0,0,1,.36.22s0,.13.57-.13c0,0,.34-.4.52.23,0,0,.21.75.66.9a4.78,4.78,0,0,0,.78.09,1,1,0,0,1,.49.69,1,1,0,0,1-.11.33s-.14.21.43.13a.64.64,0,0,1,.64.38,1.1,1.1,0,0,0,.78.11s.85,0,.95.61a.82.82,0,0,1-.22.79s-.83.8-.73,1.22c0,0,.15.18-.28.55,0,0-.41.33-.43.53a.5.5,0,0,1-.43.34s-1.05.35-.93.78c0,0,.28.27-.39.57a.91.91,0,0,0-.36.52.94.94,0,0,1-1.25.34s-.17,0,.09.26c0,0,.22.37-.83.5,0,0-.27,0-.26.41,0,0,0,.32-.37,0,0,0-.1,0,0,.18,0,0,.16.08-.54.57,0,0-.11.12.07.27,0,0,.13.14-.29.15,0,0-.59.08-.64.52,0,0-.15.34-.1-.69,0,0,.45-.75.21-1.22,0,0-.16-.13.25-.81a14.89,14.89,0,0,0,.74-3.06,1.22,1.22,0,0,1,.12-.48s.23-.38-.66-.75c0,0-1.37-1.61-1-2.21,0,0,.12-.22,0-.34,0,0-.17-.09.14-.15,0,0,.26-.08,0-.61,0,0-.19-.18.54-.31,0,0,.34-.11-.13-1a.21.21,0,0,0-.23,0s-.36.1-.49-.18-.17-.13-.24-.16a1.84,1.84,0,0,1-.51-.67s0-.13-.29,0c0,0-.3.2-.58-.47a.52.52,0,0,0-.75-.16s-.39.14-.87-.58a.77.77,0,0,0-.35-.22s-.29,0-.42-1a.41.41,0,0,0-.22-.31,2.17,2.17,0,0,1-.72-1.19s-.16-.31-.17.19a.76.76,0,0,0,.16.4,2.5,2.5,0,0,1,.34.9s0,.32-.25-.21c0,0-.16-.49-.44-.56,0,0-.11-.07,0-.24,0,0,.13,0-.46-1a1.78,1.78,0,0,1-.35-1,.61.61,0,0,0-.21-.41s-.2-.13.46-1c0,0,.2-.2-.35-.76a.88.88,0,0,1-.36-.81s0-.53-.72-.47a1,1,0,0,1-.28-.23s-.28-.11-.21.28c0,0,0,.47-.47,0,0,0-.27-.08-.48.35,0,0-.31.41-1.45.45,0,0-.2,0,.52-.41,0,0,.66-.21.66-.45,0,0,0-.13-.38,0,0,0-.5-.09.64-.4,0,0,.21-.26,0-.28,0,0-.32-.3.34-.21,0,0,.47.06.64-.53,0,0,.17-.45,1.15-.06,0,0,1.89.66,2.53,0,0,0,.28,0,.19.36,0,0,.23.27.82.07,0,0,.21-.09.06.25,0,0,0,.45.53-.08,0,0,0-.13.42,0a.5.5,0,0,0,.69-.25s.17-.56.63.22c0,0,.06.14.42,0C99.17,11.86,99.5,11.8,99.43,12.05Z"/><path class="cls-1" d="M96.47,10.89s.36.19,0,.34c0,0-.23.33.51.1a.4.4,0,0,1,.36.13s.3.21.25-.17C97.64,11.29,97.57,10.88,96.47,10.89Z"/><path class="cls-1" d="M101.34,20.24s-.31,0-.4-.14a.62.62,0,0,0-.6-.18s-.54.1-.26.15a1.48,1.48,0,0,1,.61.07,1.6,1.6,0,0,1,.39.17.24.24,0,0,0,.2,0,.79.79,0,0,1,.19,0S101.57,20.26,101.34,20.24Z"/><path class="cls-1" d="M101.89,20.6a.47.47,0,0,1,.43.16s0,.12-.19,0a.19.19,0,0,0-.1-.06S101.84,20.7,101.89,20.6Z"/><path class="cls-1" d="M102.6,21.08a.31.31,0,0,0,.05.13s0,0,0,.05.07.13.15-.12C102.78,21.15,102.77,21,102.6,21.08Z"/><path class="cls-1" d="M102.32,22.07a.12.12,0,0,0,.13.12c.07,0-.11-.11-.11-.11Z"/><circle class="cls-2" cx="99.07" cy="21.79" r="15.77"/><path class="cls-1" d="M100.27,4.66c.26,0,.45-.44.5-1.23s-.07-1.26-.34-1.28-.47.65-.5,1.23C99.87,4.17,100,4.64,100.27,4.66Z"/><polygon class="cls-1" points="85.05 8.61 85.04 8.62 85.87 9.7 86.18 9.36 85.05 8.61"/><path class="cls-1" d="M89.28,7.7c.22-.15.08-.62-.37-1.27s-.85-.94-1.07-.78,0,.8.37,1.27C88.66,7.58,89,7.86,89.28,7.7Z"/><path class="cls-1" d="M91.92,6.14c.44-.19.47-.58.12-1.36S91.39,3.73,91,3.92l-.07,0,1,2.22Z"/><path class="cls-1" d="M98.37,4.63c.26,0,.4-.49.37-1.27s-.21-1.25-.48-1.24-.39.7-.37,1.27C97.92,4.2,98.09,4.64,98.37,4.63Z"/><path class="cls-1" d="M83.18,28.23c-.1-.24-.59-.21-1.32.08s-1.1.62-1,.87.79.13,1.32-.08C82.92,28.79,83.28,28.48,83.18,28.23Z"/><polygon class="cls-1" points="80.32 17.52 81.57 18.04 81.67 17.59 80.32 17.52 80.32 17.52"/><path class="cls-1" d="M82.66,12c-.3-.18-.5-.16-.63.05l.86.5v0C83,12.35,82.94,12.16,82.66,12Z"/><path class="cls-1" d="M80.16,19.1c-.35,0-.52,0-.56.29l1,.13v0C80.62,19.28,80.47,19.14,80.16,19.1Z"/><path class="cls-1" d="M116.71,14.33c.32-.14.42-.31.33-.54l-.91.4v0C116.22,14.41,116.42,14.46,116.71,14.33Z"/><polygon class="cls-1" points="117.39 15.76 117.39 15.75 116.05 15.96 116.19 16.39 117.39 15.76"/><polygon class="cls-1" points="118.33 20.57 118.33 20.56 116.98 20.43 117.01 20.89 118.33 20.57"/><path class="cls-1" d="M97.69,38.66c-.33,0-.47.65-.52,1.22-.06.8.05,1.26.33,1.29s.46-.43.52-1.22S98,38.68,97.69,38.66Z"/><path class="cls-1" d="M110,8.5c.2.17.62-.1,1.12-.71s.67-1.07.46-1.24-.76.26-1.12.71C109.93,7.87,109.76,8.32,110,8.5Z"/><path class="cls-1" d="M106,3.95c.12-.33.07-.52-.16-.61l-.35.93h0C105.71,4.36,105.88,4.24,106,3.95Z"/><polygon class="cls-1" points="107.5 4.46 107.49 4.45 106.71 5.56 107.12 5.76 107.5 4.46"/><path class="cls-1" d="M102.74,3c.06-.32-.11-.51-.48-.57l-.18,1h.07C102.47,3.48,102.67,3.33,102.74,3Z"/><path class="cls-1" d="M115.24,11.46c.27-.18.3-.43.08-.74l-.85.57,0,.06A.47.47,0,0,0,115.24,11.46Z"/><polygon class="cls-1" points="115.98 12.52 115.98 12.51 114.7 12.96 114.92 13.36 115.98 12.52"/><polygon class="cls-1" points="109.69 37.89 109.7 37.88 109.15 36.64 108.77 36.9 109.69 37.89"/><path class="cls-1" d="M111.51,37l-.62-.78h0c-.17.14-.16.34,0,.59S111.32,37.18,111.51,37Z"/><polygon class="cls-1" points="118.27 23.73 116.96 23.37 116.92 23.83 118.27 23.74 118.27 23.73"/><path class="cls-1" d="M117.32,27.65c.33.1.52,0,.6-.19l-1-.3v0C116.89,27.39,117,27.55,117.32,27.65Z"/><path class="cls-1" d="M99.07.61a21.18,21.18,0,1,0,21.18,21.18A21.18,21.18,0,0,0,99.07.61ZM118.9,18.77l-2.78.42.12.78,2.86.35,0,.42-3.16.8,0-.4.7-.16,0-.59-.71-.08,0-.3-.18-1.18,3.15-.48Zm-1.53-5.19a.79.79,0,0,1-.47,1.12.77.77,0,0,1-.76,0c-.05.23-.32.49-.72.78l-.35.26,3-.4.13.4-2.86,1.57-.12-.38.64-.33-.19-.56-.71.1-.11-.35-.14-.32.45-.33c.52-.38.73-.58.62-.78l-1.31.57-.16-.38,2.92-1.27Zm-2.52,8.21A15.77,15.77,0,1,1,99.07,6,15.77,15.77,0,0,1,114.84,21.79Zm1.93-9.47-2.53,2.07-.19-.35.56-.44-.29-.52-.68.23-.19-.35,3.1-1Zm-1.36-2.17.24.36a.86.86,0,0,1-.2,1.29.83.83,0,0,1-1.25-.24l0-.07-1.16.78-.23-.34Zm-2.29-2.67-.91,1.88h0L113.63,8l.26.27-2.28,2.23-.23-.24.92-1.89h0l-1.42,1.39-.26-.27,2.28-2.23Zm-1.32-1.24c.44.36.18,1.13-.37,1.81-.71.87-1.36,1-1.7.73s-.3-1,.37-1.81C110.6,6.38,111.32,5.86,111.81,6.25Zm-1.13-.81-1.81,2.62-.34-.23,1.81-2.62Zm-1.08-.76a.83.83,0,0,1,.29.37l-.21.36a.62.62,0,0,0-.25-.38c-.31-.19-.63.15-1,.84s-.54,1.14-.23,1.33c.12.07.23.07.49,0l-.22.37a.75.75,0,0,1-.51-.09c-.47-.28-.44-.94.09-1.83S109.06,4.36,109.59,4.68ZM105.9,3a.79.79,0,0,1,.48,1.12.77.77,0,0,1-.55.52,1.74,1.74,0,0,1,.07,1.06l-.06.46,1.81-2.46.38.18L107.17,7l-.36-.17.2-.69-.53-.26-.42.58-.34-.16-.32-.12.08-.56c.08-.64.09-.93-.13-1L104.85,6l-.38-.14,1.12-3Zm-1-.35-.1.37-.7-.19-.25.92.64.17-.1.37-.64-.18-.29,1.05.74.2-.1.37-1.13-.31.84-3.08Zm-3-.66.43.07a.86.86,0,0,1,.79,1,.83.83,0,0,1-1,.74H102l-.24,1.38-.4-.07ZM99.5,3.34c.05-.78.34-1.62,1-1.58s.8.82.74,1.69c-.08,1.12-.53,1.61-1,1.58S99.43,4.4,99.5,3.34Zm-1.26-1.6c.57,0,.89.73.92,1.6,0,1.12-.34,1.65-.78,1.67s-.88-.54-.92-1.6C97.42,2.64,97.62,1.77,98.24,1.74Zm-1.73.15A.83.83,0,0,1,97,2L97,2.4a.62.62,0,0,0-.43-.14c-.36.05-.4.52-.29,1.31s.3,1.23.66,1.18c.13,0,.22-.08.4-.29l.06.43a.75.75,0,0,1-.46.25c-.54.08-.93-.46-1.08-1.48S95.9,2,96.51,1.89Zm-3.09.7.12.36-.69.23.3.91.63-.21.12.36-.63.21.34,1,.73-.24.12.36L93.33,6l-1-3Zm-2.65,1c.75-.33,1.26.15,1.64,1,.53,1.21.11,1.7-.3,1.88l-.47.21L90.36,3.77ZM87.61,5.33c.47-.33,1.14.14,1.64.85.64.92.6,1.58.24,1.83s-1,0-1.64-.85C87.41,6.53,87.1,5.69,87.61,5.33ZM85.64,7l1.83,1h0L86.18,6.49l.28-.25,2.1,2.41-.25.22-1.84-1h0l1.31,1.5-.28.25-2.1-2.41ZM83.46,9.21a.83.83,0,0,1,.4-.24l.33.26a.62.62,0,0,0-.41.2c-.22.29.07.65.7,1.14s1.06.68,1.29.4c.08-.11.1-.22.09-.48l.31.25-1.83-2.5.29-.31,2.75,1.76L87.1,10l-.59-.4-.4.43.43.57-.27.29-.08-.1a.74.74,0,0,1-.16.48c-.34.43-1,.32-1.8-.32S83.08,9.7,83.46,9.21Zm-.79,1.12,2.64,1.8-.23.34-2.64-1.8Zm-1,1.59a.79.79,0,0,1,1.19-.28.77.77,0,0,1,.42.63,1.74,1.74,0,0,1,1.06.11l.64.2-.22.37-.54-.17c-.61-.19-.9-.25-1,0l1.24.72-.21.36-2.76-1.6Zm-.51,1,.35.16-.3.66.87.4.28-.6.35.16-.28.6,1,.46.32-.69.35.16-.49,1.07-2.9-1.34ZM80,15.78l1.26-.07-1-.83.11-.33,3,1L83.3,16l-2.18-.77h0l.87.72L82,16l-1.12,0h0l2.19.72-.13.38-3-1Zm-.78,3.62a.79.79,0,0,1,1-.72.77.77,0,0,1,.63.42,1.74,1.74,0,0,1,1-.3l.45,0-2.79-1.21.1-.41,3.26.13-.09.39-.71,0-.13.58.66.28-.08.34,0,.36-.56.05c-.64.06-.93.12-.93.35l1.41.19-.05.41-3.16-.42Zm-.11,1.07h.38l0,.73,1,0,0-.66.38,0,0,.66,1.09,0,0-.76h.38l0,1.17-3.19-.12Zm0,1.6.38,0,0,.49,2.8-.14,0,.41-2.8.14,0,.49-.38,0ZM79.32,25l1.85-1h0l-1.95.28-.05-.37,3.16-.45,0,.33-1.87,1h0l2-.28.05.37-3.16.45Zm.19,1,3.11-.7.09.4-3.11.7Zm1,3.35c-.21-.53.39-1.08,1.2-1.41,1-.42,1.67-.23,1.84.18s-.22,1-1.2,1.41C81.61,29.79,80.73,29.9,80.5,29.32Zm.43.92.34-.17.22.44L84,29.23l.19.37-2.5,1.27.22.44-.34.17Zm1.38,2.48,2-1.28c.23-.15.33-.33.22-.5s-.27-.19-.53,0l-2,1.29-.22-.35,2-1.26a.72.72,0,1,1,.79,1.19l-2,1.28Zm.47.7.3-.23.3.39,2.23-1.7.25.33-2.23,1.7.3.39-.3.23Zm1.1,1.4,2.41-2.1.27.31-2.41,2.1Zm1.5,1.59-1-1,.27-.27.35.35,2-2,.29.29-2,2,.35.35Zm.5.49a.75.75,0,0,1-.2-.29l.25-.29a.54.54,0,0,0,.15.26.27.27,0,0,0,.43,0c.33-.38.26-1.35.7-1.86a.67.67,0,0,1,1-.12.73.73,0,0,1,.23.36l-.28.32a.54.54,0,0,0-.15-.37.31.31,0,0,0-.44,0c-.32.37-.27,1.36-.7,1.86A.66.66,0,0,1,85.88,36.9Zm1.81,1.36.58-2h0l-1.15,1.6-.31-.22L88.67,35l.27.2-.59,2h0l1.16-1.61.31.22L88,38.45Zm1.18.76-.35-.21,1.65-2.73.35.21Zm6.5,1.25L93,39.63l.06-.21,2.36.64ZM98.45,40c-.09,1.11-.54,1.6-1,1.56s-.81-.64-.72-1.7c.06-.78.36-1.61,1-1.56S98.52,39.11,98.45,40ZM99,41.57l-.09-3.19,1.14,0v.38l-.73,0,0,1,.66,0v.38l-.66,0,0,1.09.76,0v.38Zm2.91-.21-.2-.69-.59.07,0,.72-.39,0,.2-3.26.42-.05,1,3.11Zm1.45-1.23-.06-.21,2.34-.71.06.21Zm8.48-2.85a.79.79,0,0,1-1.21-.17.77.77,0,0,1-.17-.74,1.75,1.75,0,0,1-.94-.49l-.37-.29,1.18,2.83-.35.23-2.26-2.36.33-.22.48.53.5-.33-.28-.66.3-.2.29-.23.44.35c.5.4.75.56.92.39l-.89-1.12.32-.26,2,2.49Zm1.5-1.36-1.68-1.72c-.19-.2-.39-.25-.53-.11s-.13.3.09.52l1.69,1.73-.29.29-1.66-1.7a.72.72,0,1,1,1-1l1.68,1.72Zm.6-.61-.29-.25.32-.37-2.14-1.82.27-.31,2.14,1.82.32-.37.29.25Zm1.47-1.83-2.28-1.64-.46.64-.31-.22.7-1,2.59,1.87Zm1.12-1.76-2.06-1.22c-.23-.14-.44-.14-.54,0s0,.32.22.48l2.08,1.23-.21.35-2-1.2a.72.72,0,1,1,.69-1.24l2.07,1.22Zm.68-1.2a.84.84,0,0,1-.34.33l-.38-.18a.62.62,0,0,0,.36-.29c.15-.33-.21-.62-.94-1s-1.19-.42-1.34-.1c-.06.12-.05.23,0,.49l-.39-.18a.75.75,0,0,1,0-.52c.23-.5.89-.53,1.83-.09S117.44,30,117.18,30.52Zm.52-1.3-3-1.12.14-.38,3,1.12Zm.6-1.72a.79.79,0,0,1-1.09.54.77.77,0,0,1-.55-.52,1.74,1.74,0,0,1-1.06.13l-.67-.05.13-.41.56,0c.64,0,.93,0,1-.19l-1.36-.42.12-.39,3,.95Zm.44-1.54a1.05,1.05,0,0,1-.35.55l-.43-.09c.28-.21.39-.34.42-.52.09-.42-.31-.69-1.14-.86s-1.27-.06-1.36.39a.85.85,0,0,0,0,.14l1,.2.06-.28.37.08-.14.68-1.54-.31a1,1,0,0,1-.07-.59c.13-.62.78-.91,1.81-.7S118.86,25.35,118.74,26ZM119,24l-3.25.27,0-.39.72,0,.06-.59-.69-.2,0-.39,3.13.92Z"/><polygon class="cls-1" points="101.16 39.01 101.1 40.36 101.56 40.3 101.17 39 101.16 39.01"/><path class="cls-3" d="M86.19,10.75l0,0,0,0Z"/></g></g></svg>